<svg xmlns="http://www.w3.org/2000/svg" xmlns:xlink="http://www.w3.org/1999/xlink" width="1050" height="553" viewBox="0 0 1050 553">
  <defs>
    <clipPath id="clip-path">
      <rect id="Rectangle_28" data-name="Rectangle 28" width="1050" height="553" fill="#f26b4e"/>
    </clipPath>
  </defs>
  <g id="Group_94" data-name="Group 94" transform="translate(0.211)">
    <rect id="Rectangle_25" data-name="Rectangle 25" width="1050" height="553" transform="translate(-0.211)" fill="#f26b4e"/>
    <g id="Mask_Group_2" data-name="Mask Group 2" transform="translate(-0.211)" clip-path="url(#clip-path)">
      <path id="Path_118" data-name="Path 118" d="M1290.759,1569.618s-108.57-45.8-148.184-143.483c-39.757-98.035-34.821-250-5.207-223.79,59.113,52.315,165.661,84.818,153.391,99.469-24.443,29.187-115.37,63.237-58.663,149.174s192.609,129.717,232.7,53.508-6.844-249.7,105.592-267.541,307,82.695,299.179,155.66-47.907,103.773-29.331,165.389,149.59-68.1,119.281-192.953-2.933-220.518-74.306-223.761-103.637,27.565-147.635,24.322-102.66-94.044-126.125-113.5-63.552-157.281-105.593-22.7-45.952,248.083-50.841,309.7-106.57,139.445-123.192,64.858-21.509-210.789-26.4-262.676-57.685-97.287-109.5-89.18-121.769-129.717-138.39,25.943,35.73,272.4,26.931,314.563-31.287,137.824-72.351,141.067-186.5-253.758-202.141-269.973-26.4,59.994-44.975-17.836-35.2-128.1,0-193.764,41.064-125.663,87.016-86.748,44.975,77.83,76.261,147.553,78.217,131.338,88.972,28.375,4.888-158.092,15.643-187.278-1.955-87.559,89.95-55.129,125.635-43.779,167.922,66.48,35.442,126.474,57.929,210.789,44,194.575,65.506,116.745,6.844-218.9,6.844-288.62-32.265-87.559,18.577-119.988,175.988,27.97,222.918,81.073,31.286,117.961,104.615,103.368,78.217-54.319,135.9-39.32,84.084-38.51,105.593,94.45,53.774,233.49,6.844,359.964-72.839,196.2-145.923,170.253-104.859,23.511-131.991-120.393-63.182-224.525-105.415-204.181-75.217,35.144-73.262,121.486,21.51,126.879-5.866,147.958-82.128,59.994-113.414,55.13-196.52-64.047-222.918-96.071-83.1-60.4-108.526-53.508-29.331,42.563-33.242,78.236-225.607,65.669-232.451,71.344-123.192-34.051-125.147-120.393,65.507-175.523,65.507-175.523" transform="translate(-816.192 -999.282)" fill="none" stroke="#fff" stroke-width="1" opacity="0.31"/>
    </g>
  </g>
</svg>
