<svg xmlns="http://www.w3.org/2000/svg" xmlns:xlink="http://www.w3.org/1999/xlink" width="1016" height="694" viewBox="0 0 1016 694">
  <defs>
    <clipPath id="clip-path">
      <rect id="Rectangle_28" data-name="Rectangle 28" width="1016" height="694" transform="translate(0 0)" fill="#f26b4e"/>
    </clipPath>
  </defs>
  <g id="Group_62" data-name="Group 62" transform="translate(0 -0.368)">
    <rect id="Rectangle_25" data-name="Rectangle 25" width="1016" height="694" transform="translate(0 0.368)" fill="#f26b4e"/>
    <g id="Mask_Group_2" data-name="Mask Group 2" transform="translate(0 0.368)" clip-path="url(#clip-path)">
      <path id="Path_118" data-name="Path 118" d="M1272.3,1747.9s-105.076-57.557-143.415-180.318c-38.477-123.2-33.7-314.181-5.04-281.243,57.21,65.746,160.33,106.593,148.454,125.006-23.656,36.68-111.657,79.472-56.775,187.471s186.41,163.018,225.206,67.245-6.624-313.81,102.194-336.225,297.121,103.924,289.551,195.622-46.366,130.415-28.387,207.848,144.776-85.584,115.442-242.49-2.839-277.13-71.915-281.206-100.3,34.641-142.883,30.566-99.356-118.188-122.065-142.641-61.506-197.659-102.194-28.528-44.473,311.772-49.2,389.206-103.141,175.245-119.227,81.509-20.817-264.9-25.548-330.112-55.829-122.264-105.979-112.075-117.85-163.018-133.936,32.6,34.58,342.338,26.064,395.319-30.28,173.207-70.022,177.282-180.5-318.9-195.636-339.282-25.548,75.4-43.527-22.415-34.065-160.98,0-243.509S803.2,939.613,847.676,988.519s43.527,97.81,73.807,185.433,75.7,165.056,86.108,35.66,4.731-198.678,15.14-235.357-1.892-110.037,87.054-69.283,121.592-55.019,162.517,83.547,34.3,158.942,56.065,264.9,42.581,244.527,63.4,146.716,6.624-275.094,6.624-362.716-31.226-110.037,17.979-150.792,170.324,35.151,215.744,101.886,30.279,148.244,101.248,129.9,75.7-68.264,131.528-49.415,81.377-48.4,102.195,118.7,52.043,293.433,6.624,452.376-70.5,246.565-141.227,213.961-101.485,29.547-127.743-151.3-61.148-282.167-102.022-256.6-72.8,44.166-70.9,152.675,20.817,159.452-5.677,185.943-79.484,75.4-109.764,69.283-190.195-80.49-215.744-120.735-80.43-75.906-105.033-67.245-28.388,53.49-32.172,98.321-218.346,82.528-224.969,89.66-119.227-42.792-121.119-151.3,63.4-220.584,63.4-220.584" transform="translate(-813.106 -1031.538)" fill="none" stroke="#fff" stroke-width="1" opacity="0.31"/>
    </g>
  </g>
</svg>
