<svg xmlns="http://www.w3.org/2000/svg" xmlns:xlink="http://www.w3.org/1999/xlink" width="1920" height="566" viewBox="0 0 1920 566">
  <defs>
    <clipPath id="clip-path">
      <rect id="Rectangle_28" data-name="Rectangle 28" width="1920" height="566" transform="translate(0 0.423)" fill="#f26b4e"/>
    </clipPath>
  </defs>
  <g id="Group_87" data-name="Group 87" transform="translate(0 -0.16)">
    <rect id="Rectangle_25" data-name="Rectangle 25" width="1920" height="566" transform="translate(0 0.16)" fill="#0a0009"/>
    <g id="Mask_Group_2" data-name="Mask Group 2" transform="translate(0 -0.262)" clip-path="url(#clip-path)">
      <path id="Path_118" data-name="Path 118" d="M1766.4,1588.652s-198.62-47.054-271.09-147.416c-72.732-100.721-63.7-256.851-9.526-229.923,108.141,53.749,303.064,87.143,280.616,102.2-44.716,29.986-211.06,64.97-107.318,153.263s352.362,133.272,425.7,54.975-12.52-256.548,193.173-274.874,561.634,84.961,547.324,159.927-87.643,106.617-53.659,169.921,273.663-69.967,218.215-198.242-5.367-226.562-135.937-229.894-189.6,28.32-270.086,24.988-187.807-96.622-230.735-116.613-116.262-161.592-193.173-23.323-84.066,254.882-93.009,318.186-194.962,143.267-225.369,66.636-39.35-216.566-48.293-269.875-105.531-99.954-200.328-91.624-222.766-133.272-253.173,26.654S1405.1,1363.486,1389,1406.8s-57.236,141.6-132.359,144.933-341.182-260.713-369.8-277.372-48.293,61.638-82.277-18.325-64.391-131.606,0-199.075,75.123-129.107,159.189-89.125,82.277,79.962,139.514,151.6,143.091,134.938,162.766,29.153,8.943-162.425,28.618-192.411-3.577-89.958,164.555-56.641,229.84-44.979,307.2,68.3,64.838,129.94,105.977,216.567,80.489,199.907,119.839,119.945,12.521-224.9,12.521-296.53-59.025-89.958,33.984-123.276,321.956,28.737,407.81,83.295,57.236,121.194,191.384,106.2,143.091-55.808,248.621-40.4,153.824-39.565,193.174,97.039,98.375,239.889,12.52,369.829-133.254,201.574-266.956,174.919-191.831,24.155-241.466-123.693-115.586-230.679-192.847-209.777-137.6,36.107-134.026,124.816,39.35,130.357-10.732,152.013-150.245,61.638-207.482,56.641-359.517-65.8-407.81-98.7-152.034-62.055-198.539-54.974-53.66,43.729-60.814,80.38-412.729,67.469-425.249,73.3-225.369-34.984-228.946-123.693S837.206,1371.4,837.206,1371.4" transform="translate(-898.406 -1002.262)" fill="none" stroke="#fff" stroke-width="1" opacity="0.17"/>
    </g>
  </g>
</svg>
