<svg xmlns="http://www.w3.org/2000/svg" xmlns:xlink="http://www.w3.org/1999/xlink" width="373.523" height="365.114" viewBox="0 0 373.523 365.114">
  <defs>
    <clipPath id="clip-path">
      <rect id="Rectangle_28" data-name="Rectangle 28" width="283.248" height="262.912" transform="translate(0 0)" fill="#f26b4e"/>
    </clipPath>
  </defs>
  <g id="Group_80" data-name="Group 80" transform="matrix(0.883, -0.469, 0.469, 0.883, 0.802, 132.775)">
    <rect id="Rectangle_25" data-name="Rectangle 25" width="283.248" height="262.912" rx="66" transform="translate(-0.802 -0.198)" fill="#f26b4e"/>
    <g id="Mask_Group_2" data-name="Mask Group 2" transform="translate(-0.802 -0.198)" clip-path="url(#clip-path)">
      <path id="Path_118" data-name="Path 118" d="M919.43,1206.937s29.306-21.88,40-68.548c10.732-46.836,9.4-119.436,1.406-106.915-15.956,24.993-44.717,40.522-41.4,47.521,6.6,13.944,31.142,30.211,15.835,71.267s-51.991,61.971-62.811,25.563,1.847-119.295-28.5-127.816-82.869,39.507-80.758,74.366,12.932,49.577,7.917,79.013-40.379-32.535-32.2-92.182.792-105.351,20.057-106.9,27.975,13.169,39.851,11.62S826.533,969,832.866,959.7s17.154-75.14,28.5-10.845,12.4,118.52,13.723,147.957,28.767,66.619,33.253,30.986,5.806-100.7,7.126-125.492,15.571-46.479,29.558-42.605,32.869-61.971,37.356,12.394-9.645,130.14-7.269,150.281,8.445,65.844,19.53,67.394,50.341-121.231,54.564-128.978,7.126,28.662,12.14-8.521,9.5-61.2,0-92.57-11.084-60.035-23.488-41.443-12.14,37.183-20.585,70.492-21.113,62.746-24.016,13.556-1.32-75.528-4.223-89.471.528-41.831-24.28-26.338-33.913-20.915-45.327,31.76-9.567,60.422-15.637,100.7-11.876,92.957-17.682,55.774-1.848-104.577-1.848-137.886,8.709-41.831-5.014-57.323-47.5,13.363-60.172,38.732-8.445,56.355-28.239,49.383-21.113-25.951-36.684-18.785-22.7-18.4-28.5,45.123-14.515,111.549-1.847,171.97,19.662,93.732,39.389,81.338,28.3,11.232,35.628-57.517,17.055-107.266,28.454-97.546,20.3,16.79,19.776,58.04-5.806,60.616,1.583,70.686,22.169,28.662,30.614,26.338,53.047-30.6,60.172-45.9,22.433-28.855,29.294-25.563,7.917,20.334,8.973,37.377,60.9,31.373,62.745,34.084,33.253-16.267,33.781-57.517-17.682-83.855-17.682-83.855" transform="translate(-764.056 -935.34)" fill="none" stroke="#fff" stroke-width="1" opacity="0.31"/>
    </g>
  </g>
</svg>
