<svg xmlns="http://www.w3.org/2000/svg" width="178" height="190" viewBox="0 0 178 190">
  <g id="Group_89" data-name="Group 89" transform="translate(-1554 -2040)">
    <circle id="Ellipse_10" data-name="Ellipse 10" cx="5" cy="5" r="5" transform="translate(1554 2040)" fill="#f26b4e"/>
    <circle id="Ellipse_10-2" data-name="Ellipse 10" cx="5" cy="5" r="5" transform="translate(1582 2040)" fill="#f26b4e"/>
    <circle id="Ellipse_10-3" data-name="Ellipse 10" cx="5" cy="5" r="5" transform="translate(1610 2040)" fill="#f26b4e"/>
    <circle id="Ellipse_10-4" data-name="Ellipse 10" cx="5" cy="5" r="5" transform="translate(1638 2040)" fill="#f26b4e"/>
    <circle id="Ellipse_10-5" data-name="Ellipse 10" cx="5" cy="5" r="5" transform="translate(1666 2040)" fill="#f26b4e"/>
    <circle id="Ellipse_10-6" data-name="Ellipse 10" cx="5" cy="5" r="5" transform="translate(1694 2040)" fill="#f26b4e"/>
    <circle id="Ellipse_10-7" data-name="Ellipse 10" cx="5" cy="5" r="5" transform="translate(1722 2040)" fill="#f26b4e"/>
    <circle id="Ellipse_10-8" data-name="Ellipse 10" cx="5" cy="5" r="5" transform="translate(1554 2070)" fill="#f26b4e"/>
    <circle id="Ellipse_10-9" data-name="Ellipse 10" cx="5" cy="5" r="5" transform="translate(1582 2070)" fill="#f26b4e"/>
    <circle id="Ellipse_10-10" data-name="Ellipse 10" cx="5" cy="5" r="5" transform="translate(1610 2070)" fill="#f26b4e"/>
    <circle id="Ellipse_10-11" data-name="Ellipse 10" cx="5" cy="5" r="5" transform="translate(1638 2070)" fill="#f26b4e"/>
    <circle id="Ellipse_10-12" data-name="Ellipse 10" cx="5" cy="5" r="5" transform="translate(1666 2070)" fill="#f26b4e"/>
    <circle id="Ellipse_10-13" data-name="Ellipse 10" cx="5" cy="5" r="5" transform="translate(1694 2070)" fill="#f26b4e"/>
    <circle id="Ellipse_10-14" data-name="Ellipse 10" cx="5" cy="5" r="5" transform="translate(1722 2070)" fill="#f26b4e"/>
    <circle id="Ellipse_10-15" data-name="Ellipse 10" cx="5" cy="5" r="5" transform="translate(1554 2100)" fill="#f26b4e"/>
    <circle id="Ellipse_10-16" data-name="Ellipse 10" cx="5" cy="5" r="5" transform="translate(1582 2100)" fill="#f26b4e"/>
    <circle id="Ellipse_10-17" data-name="Ellipse 10" cx="5" cy="5" r="5" transform="translate(1610 2100)" fill="#f26b4e"/>
    <circle id="Ellipse_10-18" data-name="Ellipse 10" cx="5" cy="5" r="5" transform="translate(1638 2100)" fill="#f26b4e"/>
    <circle id="Ellipse_10-19" data-name="Ellipse 10" cx="5" cy="5" r="5" transform="translate(1666 2100)" fill="#f26b4e"/>
    <circle id="Ellipse_10-20" data-name="Ellipse 10" cx="5" cy="5" r="5" transform="translate(1694 2100)" fill="#f26b4e"/>
    <circle id="Ellipse_10-21" data-name="Ellipse 10" cx="5" cy="5" r="5" transform="translate(1722 2100)" fill="#f26b4e"/>
    <circle id="Ellipse_10-22" data-name="Ellipse 10" cx="5" cy="5" r="5" transform="translate(1554 2130)" fill="#f26b4e"/>
    <circle id="Ellipse_10-23" data-name="Ellipse 10" cx="5" cy="5" r="5" transform="translate(1582 2130)" fill="#f26b4e"/>
    <circle id="Ellipse_10-24" data-name="Ellipse 10" cx="5" cy="5" r="5" transform="translate(1610 2130)" fill="#f26b4e"/>
    <circle id="Ellipse_10-25" data-name="Ellipse 10" cx="5" cy="5" r="5" transform="translate(1638 2130)" fill="#f26b4e"/>
    <circle id="Ellipse_10-26" data-name="Ellipse 10" cx="5" cy="5" r="5" transform="translate(1666 2130)" fill="#f26b4e"/>
    <circle id="Ellipse_10-27" data-name="Ellipse 10" cx="5" cy="5" r="5" transform="translate(1694 2130)" fill="#f26b4e"/>
    <circle id="Ellipse_10-28" data-name="Ellipse 10" cx="5" cy="5" r="5" transform="translate(1722 2130)" fill="#f26b4e"/>
    <circle id="Ellipse_10-29" data-name="Ellipse 10" cx="5" cy="5" r="5" transform="translate(1554 2160)" fill="#f26b4e"/>
    <circle id="Ellipse_10-30" data-name="Ellipse 10" cx="5" cy="5" r="5" transform="translate(1582 2160)" fill="#f26b4e"/>
    <circle id="Ellipse_10-31" data-name="Ellipse 10" cx="5" cy="5" r="5" transform="translate(1610 2160)" fill="#f26b4e"/>
    <circle id="Ellipse_10-32" data-name="Ellipse 10" cx="5" cy="5" r="5" transform="translate(1638 2160)" fill="#f26b4e"/>
    <circle id="Ellipse_10-33" data-name="Ellipse 10" cx="5" cy="5" r="5" transform="translate(1666 2160)" fill="#f26b4e"/>
    <circle id="Ellipse_10-34" data-name="Ellipse 10" cx="5" cy="5" r="5" transform="translate(1694 2160)" fill="#f26b4e"/>
    <circle id="Ellipse_10-35" data-name="Ellipse 10" cx="5" cy="5" r="5" transform="translate(1722 2160)" fill="#f26b4e"/>
    <circle id="Ellipse_10-36" data-name="Ellipse 10" cx="5" cy="5" r="5" transform="translate(1554 2190)" fill="#f26b4e"/>
    <circle id="Ellipse_10-37" data-name="Ellipse 10" cx="5" cy="5" r="5" transform="translate(1582 2190)" fill="#f26b4e"/>
    <circle id="Ellipse_10-38" data-name="Ellipse 10" cx="5" cy="5" r="5" transform="translate(1610 2190)" fill="#f26b4e"/>
    <circle id="Ellipse_10-39" data-name="Ellipse 10" cx="5" cy="5" r="5" transform="translate(1638 2190)" fill="#f26b4e"/>
    <circle id="Ellipse_10-40" data-name="Ellipse 10" cx="5" cy="5" r="5" transform="translate(1666 2190)" fill="#f26b4e"/>
    <circle id="Ellipse_10-41" data-name="Ellipse 10" cx="5" cy="5" r="5" transform="translate(1694 2190)" fill="#f26b4e"/>
    <circle id="Ellipse_10-42" data-name="Ellipse 10" cx="5" cy="5" r="5" transform="translate(1722 2190)" fill="#f26b4e"/>
    <circle id="Ellipse_10-43" data-name="Ellipse 10" cx="5" cy="5" r="5" transform="translate(1554 2220)" fill="#f26b4e"/>
    <circle id="Ellipse_10-44" data-name="Ellipse 10" cx="5" cy="5" r="5" transform="translate(1582 2220)" fill="#f26b4e"/>
    <circle id="Ellipse_10-45" data-name="Ellipse 10" cx="5" cy="5" r="5" transform="translate(1610 2220)" fill="#f26b4e"/>
    <circle id="Ellipse_10-46" data-name="Ellipse 10" cx="5" cy="5" r="5" transform="translate(1638 2220)" fill="#f26b4e"/>
    <circle id="Ellipse_10-47" data-name="Ellipse 10" cx="5" cy="5" r="5" transform="translate(1666 2220)" fill="#f26b4e"/>
    <circle id="Ellipse_10-48" data-name="Ellipse 10" cx="5" cy="5" r="5" transform="translate(1694 2220)" fill="#f26b4e"/>
    <circle id="Ellipse_10-49" data-name="Ellipse 10" cx="5" cy="5" r="5" transform="translate(1722 2220)" fill="#f26b4e"/>
  </g>
</svg>
