<svg xmlns="http://www.w3.org/2000/svg" width="16.961" height="13.887" viewBox="0 0 16.961 13.887">
  <path id="twitter-svgrepo-com" d="M16.577,1.6a6.433,6.433,0,0,1-.82.3A3.626,3.626,0,0,0,16.495.6a.274.274,0,0,0-.4-.319,6.456,6.456,0,0,1-1.908.754A3.643,3.643,0,0,0,8,3.641a3.714,3.714,0,0,0,.03.47A9.322,9.322,0,0,1,1.628.717.274.274,0,0,0,1.18.752a3.646,3.646,0,0,0,.373,4.191,3.085,3.085,0,0,1-.487-.218.274.274,0,0,0-.406.233c0,.016,0,.032,0,.049A3.654,3.654,0,0,0,2.442,8.138Q2.3,8.124,2.165,8.1a.274.274,0,0,0-.312.352,3.64,3.64,0,0,0,2.667,2.44,6.441,6.441,0,0,1-3.443.983,6.586,6.586,0,0,1-.771-.045.274.274,0,0,0-.18.5,9.819,9.819,0,0,0,5.31,1.556,9.446,9.446,0,0,0,7.319-3.215,10.189,10.189,0,0,0,2.536-6.64c0-.1,0-.2,0-.3A7.078,7.078,0,0,0,16.915,2a.274.274,0,0,0-.338-.4Z" fill="#fff"/>
</svg>
