<svg id="XMLID_13_" xmlns="http://www.w3.org/2000/svg" width="16.961" height="16.961" viewBox="0 0 16.961 16.961">
  <path id="XMLID_17_" d="M11.908,0H5.053A5.058,5.058,0,0,0,0,5.053v6.855a5.058,5.058,0,0,0,5.053,5.053h6.855a5.058,5.058,0,0,0,5.053-5.053V5.053A5.058,5.058,0,0,0,11.908,0Zm3.346,11.908a3.346,3.346,0,0,1-3.346,3.346H5.053a3.346,3.346,0,0,1-3.346-3.346V5.053A3.346,3.346,0,0,1,5.053,1.706h6.855a3.346,3.346,0,0,1,3.346,3.346v6.855Z" transform="translate(0)" fill="#fff"/>
  <path id="XMLID_81_" d="M4.387,0A4.387,4.387,0,1,0,8.773,4.387,4.392,4.392,0,0,0,4.387,0Zm0,7.067a2.68,2.68,0,1,1,2.68-2.68A2.68,2.68,0,0,1,4.387,7.067Z" transform="translate(4.094 4.094)" fill="#fff"/>
  <ellipse id="XMLID_83_" cx="1.051" cy="1.051" rx="1.051" ry="1.051" transform="translate(11.824 3.076)" fill="#fff"/>
</svg>
