<svg id="XMLID_834_" xmlns="http://www.w3.org/2000/svg" width="10.683" height="21.149" viewBox="0 0 10.683 21.149">
  <path id="XMLID_835_" d="M.341,11.264H2.659v9.544A.341.341,0,0,0,3,21.149H6.931a.341.341,0,0,0,.341-.341v-9.5H9.937a.341.341,0,0,0,.339-.3l.4-3.514a.341.341,0,0,0-.339-.38H7.272V4.91c0-.664.357-1,1.063-1h2.007a.341.341,0,0,0,.341-.341V.344A.341.341,0,0,0,10.342,0H7.576c-.02,0-.063,0-.127,0A5.3,5.3,0,0,0,3.983,1.307,3.635,3.635,0,0,0,2.775,4.537V7.113H.341A.341.341,0,0,0,0,7.454v3.469A.341.341,0,0,0,.341,11.264Z" fill="#fff"/>
</svg>
